<?xml version="1.0" encoding="UTF-8" standalone="no"?>
<!-- Created with Inkscape (http://www.inkscape.org/) -->

<svg
   width="512"
   height="512"
   viewBox="0 0 135.46666 135.46667"
   version="1.1"
   id="svg5"
   xmlns="http://www.w3.org/2000/svg"
   xmlns:svg="http://www.w3.org/2000/svg">
  <defs
     id="defs2" />
  <g
     id="layer1"
     style="display:none">
    <path
       style="fill:none;stroke:#000000;stroke-width:0.264583px;stroke-linecap:butt;stroke-linejoin:miter;stroke-opacity:1"
       d="m 11.964859,47.427366 c 0,0 67.205337,-0.423097 73.357454,-0.790878 C 110.73437,47.248709 119.11186,28.15173 119.11186,28.15173"
       id="path857" />
    <path
       style="fill:none;stroke:#000000;stroke-width:0.264583px;stroke-linecap:butt;stroke-linejoin:miter;stroke-opacity:1"
       d="m 11.964859,47.427366 c 0,0 67.205337,-0.423097 73.357454,-0.790878 C 110.73437,47.248709 119.11186,28.15173 119.11186,28.15173"
       id="path1380" />
    <path
       style="fill:none;stroke:#000000;stroke-width:0.264583px;stroke-linecap:butt;stroke-linejoin:miter;stroke-opacity:1"
       d="m 119.11186,28.151729 c 0,0 -67.205342,0.423097 -73.357462,0.790878 C 20.342349,28.330386 11.964859,47.427366 11.964859,47.427366"
       id="path1380-3" />
    <path
       style="fill:none;stroke:#000000;stroke-width:0.264583px;stroke-linecap:butt;stroke-linejoin:miter;stroke-opacity:1"
       d="m 49.069706,52.111348 c 0,0 -3.167255,39.948395 5.098109,50.854762 8.265366,10.90636 51.555965,14.36665 51.555965,14.36665 0,0 -28.091611,-10.12377 -28.229498,-28.592768 C 78.487446,68.650818 78.559503,60.723563 78.910091,52.286267 68.395428,51.940911 49.069706,52.111348 49.069706,52.111348 Z"
       id="path1442" />
  </g>
  <g
     id="layer2"
     style="display:none">
    <rect
       style="fill:#000000;fill-opacity:1;stroke:none;stroke-width:0.0824548;stroke-linecap:round;stroke-linejoin:round"
       id="rect2206"
       width="19.761295"
       height="39.605045"
       x="45.888569"
       y="51.576046"
       rx="0"
       ry="0" />
    <rect
       style="fill:#000000;fill-opacity:1;stroke:none;stroke-width:0.0707838;stroke-linecap:round;stroke-linejoin:round"
       id="rect2604"
       width="19.772966"
       height="19.772966"
       x="45.742432"
       y="28.930637" />
    <rect
       style="fill:#000000;fill-opacity:1;stroke:none;stroke-width:0.0707838;stroke-linecap:round;stroke-linejoin:round"
       id="rect2604-5"
       width="19.772966"
       height="19.772966"
       x="45.924164"
       y="94.329597" />
    <path
       style="fill:#000000;fill-opacity:1;stroke:none;stroke-width:0.297229px;stroke-linecap:butt;stroke-linejoin:miter;stroke-opacity:1"
       d="m 42.512273,28.965846 v 19.376245 c 0,0 -21.402152,-0.06631 -39.2990232,0.08759 C 15.645516,26.523735 42.512273,28.965846 42.512273,28.965846"
       id="path2639" />
    <path
       style="fill:#000000;fill-opacity:1;stroke:none;stroke-width:0.297229px;stroke-linecap:butt;stroke-linejoin:miter;stroke-opacity:1"
       d="M 68.613321,48.88643 V 29.510185 c 0,0 21.402152,0.06631 39.299069,-0.08759 C 95.480078,51.328541 68.613321,48.88643 68.613321,48.88643"
       id="path2639-5" />
    <path
       style="fill:#000000;fill-opacity:1;stroke:none;stroke-width:0.297229px;stroke-linecap:butt;stroke-linejoin:miter;stroke-opacity:1"
       d="M 68.706612,113.53638 V 94.160059 c 0,0 21.402152,0.06631 39.299108,-0.08759 C 95.573369,115.9785 68.706612,113.53638 68.706612,113.53638"
       id="path2639-5-3" />
  </g>
  <g
     id="layer3"
     style="display:none">
    <rect
       style="fill:#000000;fill-opacity:1;stroke:none;stroke-width:0.101871;stroke-linecap:round;stroke-linejoin:round"
       id="rect3696"
       width="21.166666"
       height="21.166666"
       x="57.149998"
       y="13.229166" />
    <rect
       style="fill:#000000;fill-opacity:1;stroke:none;stroke-width:0.101871;stroke-linecap:round;stroke-linejoin:round"
       id="rect3696-2"
       width="21.166666"
       height="21.166666"
       x="57.149998"
       y="82.020836" />
    <path
       id="rect3696-2-9"
       style="stroke-width:0.101854;stroke-linecap:round;stroke-linejoin:round"
       d="M 54.504166,13.229167 V 34.395833 H 33.344458 C 33.046297,22.914925 42.365388,13.516216 54.504166,13.229167 Z" />
    <path
       id="rect3696-2-9-1"
       style="stroke-width:0.101854;stroke-linecap:round;stroke-linejoin:round"
       d="M 80.962499,34.395833 V 13.229167 h 21.159711 c 0.29816,11.480908 -9.020933,20.879616 -21.159711,21.166666 z" />
    <rect
       style="fill:#000000;fill-opacity:1;stroke:none;stroke-width:0.144067;stroke-linecap:round;stroke-linejoin:round"
       id="rect3696-6"
       width="21.166666"
       height="42.333332"
       x="57.149998"
       y="37.041668" />
  </g>
  <g
     id="layer4">
    <g
       id="g4580"
       transform="translate(0,-4.2333326)">
      <rect
         style="fill:#000000;fill-opacity:1;stroke:none;stroke-width:0.0963853;stroke-linecap:round;stroke-linejoin:round"
         id="rect4218"
         width="33.866665"
         height="33.866665"
         x="50.799999"
         y="16.933332" />
      <path
         id="rect4218-7"
         style="stroke-width:0.0963807;stroke-linecap:round;stroke-linejoin:round"
         d="m 42.333331,16.936599 v 33.8634 H 8.4666662 C 8.5540135,32.518474 24.808312,16.672041 42.333331,16.936599 Z" />
      <path
         id="rect4218-7-0"
         style="stroke-width:0.0963807;stroke-linecap:round;stroke-linejoin:round"
         d="M 93.133332,50.796738 V 16.933333 h 33.866658 c -0.0874,18.281525 -16.34164,34.127955 -33.866658,33.863405 z" />
      <rect
         style="fill:#000000;fill-opacity:1;stroke:none;stroke-width:0.136309;stroke-linecap:round;stroke-linejoin:round"
         id="rect4218-2"
         width="33.866665"
         height="67.73333"
         x="50.799999"
         y="59.266666" />
    </g>
  </g>
  <g
     id="g941">
    <g
       id="g939"
       transform="translate(0,-4.2333326)"
       style="fill:#d5008a;fill-opacity:1">
      <rect
         style="fill:#d5008a;fill-opacity:1;stroke:none;stroke-width:0.0963853;stroke-linecap:round;stroke-linejoin:round"
         id="rect931"
         width="33.866665"
         height="33.866665"
         x="50.799999"
         y="16.933332" />
      <path
         id="path933"
         style="stroke-width:0.0963807;stroke-linecap:round;stroke-linejoin:round;fill:#d5008a;fill-opacity:1"
         d="m 42.333331,16.936599 v 33.8634 H 8.4666662 C 8.5540135,32.518474 24.808312,16.672041 42.333331,16.936599 Z" />
      <path
         id="path935"
         style="stroke-width:0.0963807;stroke-linecap:round;stroke-linejoin:round;fill:#d5008a;fill-opacity:1"
         d="M 93.133332,50.796738 V 16.933333 h 33.866658 c -0.0874,18.281525 -16.34164,34.127955 -33.866658,33.863405 z" />
      <rect
         style="fill:#d5008a;fill-opacity:1;stroke:none;stroke-width:0.136309;stroke-linecap:round;stroke-linejoin:round"
         id="rect937"
         width="33.866665"
         height="67.73333"
         x="50.799999"
         y="59.266666" />
    </g>
  </g>
</svg>
